<svg id="_x31_" enable-background="new 0 0 24 24" height="512" viewBox="0 0 24 24" width="512" xmlns="http://www.w3.org/2000/svg"><g><path d="m.5 24c-.276 0-.5-.224-.5-.5v-23c0-.276.224-.5.5-.5h23c.276 0 .5.224.5.5s-.224.5-.5.5h-22.5v22.5c0 .276-.224.5-.5.5z"/></g><g><path d="m14.5 15c-.128 0-.256-.049-.354-.146l-14-14c-.195-.195-.195-.512 0-.707s.512-.195.707 0l14 14c.195.195.195.512 0 .707-.097.097-.225.146-.353.146z"/></g><g><path d="m11 11.5c-.276 0-.5-.224-.5-.5 0-.047.015-.117.033-.18 1.126-6.271 6.573-10.82 12.967-10.82.276 0 .5.224.5.5s-.224.5-.5.5c-5.919 0-10.96 4.217-11.988 10.027-.006.033-.015.065-.027.097-.055.216-.252.376-.485.376z"/></g><g><path d="m.5 23.94c-.276 0-.5-.224-.5-.5 0-6.399 4.568-11.859 10.862-12.982v.002c.058-.012.116-.02.157-.02.276 0 .5.224.5.5 0 .263-.203.479-.462.499-.007.001-.013.003-.02.004-5.815 1.037-10.037 6.082-10.037 11.997 0 .276-.224.5-.5.5zm10.519-12.961.001.001v-.04z"/></g><g><path d="m6.623 7.127c-.126 0-.25-.047-.347-.144l-.01-.01c-.141-.14-.18-.344-.118-.52.376-2.306 1.363-4.473 2.857-6.272.177-.213.492-.241.704-.066.213.176.242.492.065.704-1.395 1.681-2.312 3.71-2.65 5.869-.006.038-.017.076-.031.112-.025.065-.063.126-.114.179-.099.099-.228.148-.356.148z"/></g><g><path d="m.5 10.05c-.139 0-.277-.058-.376-.17-.182-.208-.161-.523.047-.706 1.808-1.584 4.005-2.641 6.353-3.056v.001c.164-.032.339.016.46.138.195.195.195.512 0 .707-.09.09-.206.139-.324.146-2.154.387-4.17 1.36-5.831 2.816-.095.083-.212.124-.329.124z"/></g></svg>